Oswald--200.ufo
<glyph name="greater" format="1">
  <advance width="732"/>
  <unicode hex="003E"/>
  <outline>
    <contour>
      <point x="117" y="157" type="line"/>
      <point x="674" y="594" type="line"/>
      <point x="674" y="699" type="line"/>
      <point x="117" y="1120" type="line"/>
      <point x="117" y="1005" type="line"/>
      <point x="588" y="647" type="line"/>
      <point x="117" y="273" type="line"/>
    </contour>
  </outline>
</glyph>
<glyph name="D" format="1">
  <advance width="1059"/>
  <unicode hex="0044"/>
  <outline>
    <contour>
      <point x="265" y="88" type="line"/>
      <point x="265" y="1569" type="line"/>
      <point x="516" y="1569" type="line" smooth="yes"/>
      <point x="771" y="1569"/>
      <point x="828" y="1416"/>
      <point x="828" y="1173" type="curve" smooth="yes"/>
      <point x="828" y="506" type="line" smooth="yes"/>
      <point x="828" y="280"/>
      <point x="789" y="88"/>
      <point x="521" y="88" type="curve" smooth="yes"/>
    </contour>
    <contour>
      <point x="153" y="0" type="line"/>
      <point x="526" y="0" type="line" smooth="yes"/>
      <point x="847" y="0"/>
      <point x="941" y="208"/>
      <point x="941" y="494" type="curve" smooth="yes"/>
      <point x="941" y="1182" type="line" smooth="yes"/>
      <point x="941" y="1448"/>
      <point x="846" y="1658"/>
      <point x="517" y="1658" type="curve" smooth="yes"/>
      <point x="153" y="1658" type="line"/>
    </contour>
  </outline>
</glyph>
<glyph name="G" format="1">
  <advance width="1045"/>
  <unicode hex="0047"/>
  <outline>
    <contour>
      <point x="517" y="-23" type="curve" smooth="yes"/>
      <point x="691" y="-23"/>
      <point x="779" y="57"/>
      <point x="819" y="186" type="curve"/>
      <point x="836" y="0" type="line"/>
      <point x="908" y="0" type="line"/>
      <point x="908" y="790" type="line"/>
      <point x="539" y="790" type="line"/>
      <point x="539" y="704" type="line"/>
      <point x="803" y="704" type="line"/>
      <point x="803" y="460" type="line" smooth="yes"/>
      <point x="803" y="218"/>
      <point x="744" y="70"/>
      <point x="525" y="70" type="curve" smooth="yes"/>
      <point x="288" y="70"/>
      <point x="231" y="225"/>
      <point x="231" y="467" type="curve" smooth="yes"/>
      <point x="231" y="1189" type="line" smooth="yes"/>
      <point x="231" y="1422"/>
      <point x="279" y="1586"/>
      <point x="523" y="1586" type="curve" smooth="yes"/>
      <point x="738" y="1586"/>
      <point x="799" y="1454"/>
      <point x="799" y="1211" type="curve" smooth="yes"/>
      <point x="799" y="1146" type="line"/>
      <point x="905" y="1146" type="line"/>
      <point x="905" y="1204" type="line" smooth="yes"/>
      <point x="905" y="1495"/>
      <point x="811" y="1677"/>
      <point x="522" y="1677" type="curve" smooth="yes"/>
      <point x="203" y="1677"/>
      <point x="118" y="1477"/>
      <point x="118" y="1185" type="curve" smooth="yes"/>
      <point x="118" y="481" type="line" smooth="yes"/>
      <point x="118" y="189"/>
      <point x="201" y="-23"/>
    </contour>
  </outline>
</glyph>
<glyph name="O" format="1">
  <advance width="1056"/>
  <unicode hex="004F"/>
  <outline>
    <contour>
      <point x="528" y="70" type="curve" smooth="yes"/>
      <point x="289" y="70"/>
      <point x="231" y="222"/>
      <point x="231" y="447" type="curve" smooth="yes"/>
      <point x="231" y="1212" type="line" smooth="yes"/>
      <point x="231" y="1438"/>
      <point x="289" y="1586"/>
      <point x="528" y="1586" type="curve" smooth="yes"/>
      <point x="767" y="1586"/>
      <point x="825" y="1437"/>
      <point x="825" y="1212" type="curve" smooth="yes"/>
      <point x="825" y="447" type="line" smooth="yes"/>
      <point x="825" y="222"/>
      <point x="766" y="70"/>
    </contour>
    <contour>
      <point x="528" y="-22" type="curve" smooth="yes"/>
      <point x="851" y="-22"/>
      <point x="938" y="186"/>
      <point x="938" y="469" type="curve" smooth="yes"/>
      <point x="938" y="1196" type="line" smooth="yes"/>
      <point x="938" y="1477"/>
      <point x="842" y="1677"/>
      <point x="528" y="1677" type="curve" smooth="yes"/>
      <point x="213" y="1677"/>
      <point x="118" y="1478"/>
      <point x="118" y="1196" type="curve" smooth="yes"/>
      <point x="118" y="472" type="line" smooth="yes"/>
      <point x="118" y="188"/>
      <point x="204" y="-22"/>
    </contour>
  </outline>
</glyph>
<glyph name="d" format="1">
  <advance width="808"/>
  <unicode hex="0064"/>
  <outline>
    <contour>
      <point x="372" y="-19" type="curve" smooth="yes"/>
      <point x="470" y="-19"/>
      <point x="539" y="38"/>
      <point x="582" y="90" type="curve"/>
      <point x="582" y="0" type="line"/>
      <point x="691" y="0" type="line"/>
      <point x="691" y="1658" type="line"/>
      <point x="582" y="1658" type="line"/>
      <point x="582" y="1093" type="line"/>
      <point x="538" y="1146"/>
      <point x="467" y="1202"/>
      <point x="367" y="1203" type="curve" smooth="yes"/>
      <point x="150" y="1203"/>
      <point x="94" y="1030"/>
      <point x="94" y="697" type="curve" smooth="yes"/>
      <point x="94" y="486" type="line" smooth="yes"/>
      <point x="94" y="126"/>
      <point x="168" y="-19"/>
    </contour>
    <contour>
      <point x="388" y="66" type="curve" smooth="yes"/>
      <point x="239" y="66"/>
      <point x="203" y="190"/>
      <point x="203" y="477" type="curve" smooth="yes"/>
      <point x="203" y="723" type="line" smooth="yes"/>
      <point x="203" y="1000"/>
      <point x="233" y="1118"/>
      <point x="384" y="1118" type="curve" smooth="yes"/>
      <point x="469" y="1118"/>
      <point x="539" y="1059"/>
      <point x="582" y="1015" type="curve"/>
      <point x="582" y="166" type="line"/>
      <point x="534" y="112"/>
      <point x="465" y="66"/>
    </contour>
  </outline>
</glyph>
<glyph name="asciitilde" format="1">
  <advance width="783"/>
  <unicode hex="007E"/>
  <outline>
    <contour>
      <point x="527" y="781" type="curve" smooth="yes"/>
      <point x="579" y="781"/>
      <point x="639" y="827"/>
      <point x="700" y="888" type="curve"/>
      <point x="660" y="938" type="line"/>
      <point x="598" y="889"/>
      <point x="568" y="865"/>
      <point x="529" y="865" type="curve" smooth="yes"/>
      <point x="468" y="865"/>
      <point x="341" y="975"/>
      <point x="265" y="975" type="curve" smooth="yes"/>
      <point x="209" y="975"/>
      <point x="145" y="929"/>
      <point x="83" y="858" type="curve"/>
      <point x="123" y="808" type="line"/>
      <point x="186" y="869"/>
      <point x="230" y="893"/>
      <point x="258" y="893" type="curve" smooth="yes"/>
      <point x="323" y="893"/>
      <point x="448" y="781"/>
    </contour>
  </outline>
</glyph>
<glyph name="exclamdown" format="1">
  <advance width="404"/>
  <unicode hex="00A1"/>
  <outline>
    <contour>
      <point x="139" y="-415" type="line"/>
      <point x="263" y="-415" type="line"/>
      <point x="222" y="886" type="line"/>
      <point x="183" y="886" type="line"/>
    </contour>
    <contour>
      <point x="142" y="1092" type="line"/>
      <point x="265" y="1092" type="line"/>
      <point x="265" y="1243" type="line"/>
      <point x="142" y="1243" type="line"/>
    </contour>
  </outline>
</glyph>
<glyph name="dieresis" format="1">
  <advance width="762"/>
  <unicode hex="00A8"/>
  <outline>
    <contour>
      <point x="151" y="1504" type="line"/>
      <point x="264" y="1504" type="line"/>
      <point x="264" y="1658" type="line"/>
      <point x="151" y="1658" type="line"/>
    </contour>
    <contour>
      <point x="477" y="1504" type="line"/>
      <point x="591" y="1504" type="line"/>
      <point x="591" y="1658" type="line"/>
      <point x="477" y="1658" type="line"/>
    </contour>
  </outline>
</glyph>
<glyph name="registered" format="1">
  <advance width="1780"/>
  <unicode hex="00AE"/>
  <outline>
    <contour>
      <point x="621" y="226" type="line"/>
      <point x="718" y="226" type="line"/>
      <point x="718" y="841" type="line"/>
      <point x="952" y="841" type="line"/>
      <point x="1154" y="226" type="line"/>
      <point x="1255" y="226" type="line"/>
      <point x="1044" y="857" type="line"/>
      <point x="1198" y="884"/>
      <point x="1246" y="1015"/>
      <point x="1246" y="1157" type="curve" smooth="yes"/>
      <point x="1246" y="1321"/>
      <point x="1188" y="1471"/>
      <point x="965" y="1471" type="curve" smooth="yes"/>
      <point x="621" y="1471" type="line"/>
    </contour>
    <contour>
      <point x="718" y="908" type="line"/>
      <point x="718" y="1397" type="line"/>
      <point x="955" y="1397" type="line" smooth="yes"/>
      <point x="1105" y="1397"/>
      <point x="1146" y="1311"/>
      <point x="1146" y="1158" type="curve" smooth="yes"/>
      <point x="1146" y="1004"/>
      <point x="1115" y="908"/>
      <point x="946" y="908" type="curve" smooth="yes"/>
    </contour>
    <contour>
      <point x="891" y="42" type="curve" smooth="yes"/>
      <point x="372" y="42"/>
      <point x="147" y="438"/>
      <point x="147" y="840" type="curve" smooth="yes"/>
      <point x="147" y="1244"/>
      <point x="372" y="1635"/>
      <point x="891" y="1635" type="curve" smooth="yes"/>
      <point x="1406" y="1635"/>
      <point x="1633" y="1244"/>
      <point x="1633" y="840" type="curve" smooth="yes"/>
      <point x="1633" y="438"/>
      <point x="1406" y="42"/>
    </contour>
    <contour>
      <point x="891" y="-24" type="curve" smooth="yes"/>
      <point x="1475" y="-24"/>
      <point x="1710" y="423"/>
      <point x="1710" y="839" type="curve" smooth="yes"/>
      <point x="1710" y="1255"/>
      <point x="1473" y="1702"/>
      <point x="891" y="1702" type="curve" smooth="yes"/>
      <point x="307" y="1702"/>
      <point x="70" y="1255"/>
      <point x="70" y="839" type="curve" smooth="yes"/>
      <point x="70" y="424"/>
      <point x="307" y="-24"/>
    </contour>
  </outline>
</glyph>
<glyph name="onehalf" format="1">
  <advance width="1542"/>
  <unicode hex="00BD"/>
  <outline>
    <contour>
      <point x="996" y="-1" type="line"/>
      <point x="1433" y="-1" type="line"/>
      <point x="1433" y="74" type="line"/>
      <point x="1099" y="74" type="line"/>
      <point x="1107" y="85"/>
      <point x="1308" y="377"/>
      <point x="1319" y="389" type="curve"/>
      <point x="1399" y="498"/>
      <point x="1458" y="593"/>
      <point x="1458" y="710" type="curve" smooth="yes"/>
      <point x="1458" y="870"/>
      <point x="1370" y="954"/>
      <point x="1230" y="954" type="curve" smooth="yes"/>
      <point x="1075" y="954"/>
      <point x="999" y="873"/>
      <point x="998" y="700" type="curve" smooth="yes"/>
      <point x="998" y="699"/>
      <point x="998" y="687"/>
      <point x="998" y="685" type="curve"/>
      <point x="1085" y="685" type="line"/>
      <point x="1085" y="811"/>
      <point x="1120" y="880"/>
      <point x="1230" y="880" type="curve" smooth="yes"/>
      <point x="1325" y="880"/>
      <point x="1361" y="814"/>
      <point x="1361" y="705" type="curve" smooth="yes"/>
      <point x="1361" y="587"/>
      <point x="1304" y="525"/>
      <point x="1245" y="438" type="curve"/>
      <point x="996" y="72" type="line"/>
    </contour>
    <contour>
      <point x="276" y="590" type="line"/>
      <point x="365" y="590" type="line"/>
      <point x="365" y="1658" type="line"/>
      <point x="307" y="1658" type="line"/>
      <point x="281" y="1629"/>
      <point x="182" y="1561"/>
      <point x="123" y="1532" type="curve"/>
      <point x="123" y="1453" type="line"/>
      <point x="276" y="1530" type="line"/>
    </contour>
    <contour>
      <point x="395" y="0" type="line"/>
      <point x="494" y="0" type="line"/>
      <point x="1084" y="1658" type="line"/>
      <point x="986" y="1658" type="line"/>
    </contour>
  </outline>
</glyph>
<glyph name="germandbls" format="1">
  <advance width="992"/>
  <unicode hex="00DF"/>
  <outline>
    <contour>
      <point x="349" y="-22" type="line"/>
      <point x="803" y="-22"/>
      <point x="896" y="248"/>
      <point x="896" y="492" type="curve" smooth="yes"/>
      <point x="896" y="689"/>
      <point x="829" y="885"/>
      <point x="612" y="933" type="curve"/>
      <point x="747" y="976"/>
      <point x="811" y="1102"/>
      <point x="811" y="1299" type="curve" smooth="yes"/>
      <point x="811" y="1568"/>
      <point x="677" y="1698"/>
      <point x="468" y="1698" type="curve" smooth="yes"/>
      <point x="250" y="1698"/>
      <point x="131" y="1602"/>
      <point x="131" y="1250" type="curve" smooth="yes"/>
      <point x="131" y="0" type="line"/>
      <point x="240" y="0" type="line"/>
      <point x="240" y="1252" type="line" smooth="yes"/>
      <point x="240" y="1556"/>
      <point x="326" y="1612"/>
      <point x="472" y="1612" type="curve" smooth="yes"/>
      <point x="636" y="1612"/>
      <point x="705" y="1503"/>
      <point x="705" y="1299" type="curve" smooth="yes"/>
      <point x="705" y="1123"/>
      <point x="652" y="972"/>
      <point x="470" y="972" type="curve"/>
      <point x="465" y="881" type="line"/>
      <point x="718" y="881"/>
      <point x="790" y="684"/>
      <point x="790" y="486" type="curve" smooth="yes"/>
      <point x="790" y="294"/>
      <point x="725" y="69"/>
      <point x="349" y="69" type="curve"/>
    </contour>
  </outline>
</glyph>
<glyph name="kgreenlandic" format="1">
  <advance width="841"/>
  <unicode hex="0138"/>
  <outline>
    <contour>
      <point x="131" y="0" type="line"/>
      <point x="240" y="0" type="line"/>
      <point x="240" y="439" type="line"/>
      <point x="387" y="648" type="line"/>
      <point x="664" y="0" type="line"/>
      <point x="775" y="0" type="line"/>
      <point x="464" y="721" type="line"/>
      <point x="769" y="1184" type="line"/>
      <point x="652" y="1184" type="line"/>
      <point x="240" y="565" type="line"/>
      <point x="240" y="1184" type="line"/>
      <point x="131" y="1184" type="line"/>
    </contour>
  </outline>
</glyph>
<glyph name="ring" format="1">
  <advance width="589"/>
  <unicode hex="02DA"/>
  <outline>
    <contour>
      <point x="295" y="1330" type="curve" smooth="yes"/>
      <point x="380" y="1330"/>
      <point x="471" y="1381"/>
      <point x="471" y="1504" type="curve" smooth="yes"/>
      <point x="471" y="1627"/>
      <point x="380" y="1678"/>
      <point x="295" y="1678" type="curve" smooth="yes"/>
      <point x="208" y="1678"/>
      <point x="118" y="1627"/>
      <point x="118" y="1504" type="curve" smooth="yes"/>
      <point x="118" y="1381"/>
      <point x="209" y="1330"/>
    </contour>
    <contour>
      <point x="295" y="1393" type="curve" smooth="yes"/>
      <point x="240" y="1393"/>
      <point x="187" y="1424"/>
      <point x="187" y="1504" type="curve" smooth="yes"/>
      <point x="187" y="1585"/>
      <point x="240" y="1616"/>
      <point x="295" y="1616" type="curve" smooth="yes"/>
      <point x="350" y="1616"/>
      <point x="404" y="1585"/>
      <point x="404" y="1504" type="curve" smooth="yes"/>
      <point x="404" y="1424"/>
      <point x="350" y="1393"/>
    </contour>
  </outline>
</glyph>
<glyph name="uni030C" format="1">
  <advance width="0"/>
  <unicode hex="030C"/>
  <outline>
    <contour>
      <point x="-19" y="1326" type="line"/>
      <point x="63" y="1326" type="line"/>
      <point x="238" y="1658" type="line"/>
      <point x="146" y="1658" type="line"/>
      <point x="23" y="1409" type="line"/>
      <point x="-99" y="1658" type="line"/>
      <point x="-192" y="1658" type="line"/>
    </contour>
  </outline>
</glyph>
<glyph name="afii10025" format="1">
  <advance width="942"/>
  <unicode hex="0417"/>
  <outline>
    <contour>
      <point x="487" y="-22" type="curve" smooth="yes"/>
      <point x="763" y="-22"/>
      <point x="871" y="169"/>
      <point x="871" y="443" type="curve" smooth="yes"/>
      <point x="871" y="729"/>
      <point x="735" y="837"/>
      <point x="630" y="862" type="curve"/>
      <point x="764" y="889"/>
      <point x="871" y="1017"/>
      <point x="871" y="1268" type="curve" smooth="yes"/>
      <point x="871" y="1500"/>
      <point x="754" y="1677"/>
      <point x="500" y="1677" type="curve" smooth="yes"/>
      <point x="224" y="1677"/>
      <point x="126" y="1522"/>
      <point x="126" y="1291" type="curve" smooth="yes"/>
      <point x="126" y="1264" type="line"/>
      <point x="229" y="1264" type="line"/>
      <point x="229" y="1269"/>
      <point x="229" y="1289"/>
      <point x="229" y="1294" type="curve" smooth="yes"/>
      <point x="232" y="1511"/>
      <point x="327" y="1590"/>
      <point x="503" y="1590" type="curve" smooth="yes"/>
      <point x="691" y="1590"/>
      <point x="759" y="1456"/>
      <point x="759" y="1270" type="curve" smooth="yes"/>
      <point x="759" y="1025"/>
      <point x="681" y="907"/>
      <point x="470" y="904" type="curve" smooth="yes"/>
      <point x="466" y="904"/>
      <point x="372" y="904"/>
      <point x="367" y="904" type="curve"/>
      <point x="367" y="821" type="line"/>
      <point x="372" y="821"/>
      <point x="467" y="821"/>
      <point x="471" y="821" type="curve" smooth="yes"/>
      <point x="682" y="816"/>
      <point x="759" y="660"/>
      <point x="759" y="440" type="curve" smooth="yes"/>
      <point x="759" y="145"/>
      <point x="640" y="66"/>
      <point x="487" y="66" type="curve" smooth="yes"/>
      <point x="316" y="66"/>
      <point x="243" y="171"/>
      <point x="242" y="361" type="curve" smooth="yes"/>
      <point x="242" y="366"/>
      <point x="241" y="394"/>
      <point x="241" y="399" type="curve"/>
      <point x="139" y="399" type="line"/>
      <point x="139" y="368" type="line" smooth="yes"/>
      <point x="139" y="134"/>
      <point x="236" y="-22"/>
    </contour>
  </outline>
</glyph>
<glyph name="afii10038" format="1">
  <advance width="1215"/>
  <unicode hex="0424"/>
  <outline>
    <contour>
      <point x="549" y="-114" type="line"/>
      <point x="661" y="-114" type="line"/>
      <point x="661" y="185" type="line"/>
      <point x="689" y="182"/>
      <point x="746" y="180"/>
      <point x="764" y="180" type="curve"/>
      <point x="985" y="173"/>
      <point x="1097" y="310"/>
      <point x="1097" y="595" type="curve" smooth="yes"/>
      <point x="1097" y="1079" type="line" smooth="yes"/>
      <point x="1097" y="1370"/>
      <point x="982" y="1521"/>
      <point x="756" y="1517" type="curve"/>
      <point x="740" y="1517"/>
      <point x="687" y="1515"/>
      <point x="661" y="1513" type="curve"/>
      <point x="661" y="1808" type="line"/>
      <point x="549" y="1808" type="line"/>
      <point x="549" y="1512" type="line"/>
      <point x="527" y="1514"/>
      <point x="481" y="1515"/>
      <point x="469" y="1515" type="curve"/>
      <point x="236" y="1519"/>
      <point x="118" y="1370"/>
      <point x="118" y="1079" type="curve" smooth="yes"/>
      <point x="118" y="595" type="line" smooth="yes"/>
      <point x="118" y="308"/>
      <point x="230" y="174"/>
      <point x="450" y="180" type="curve"/>
      <point x="468" y="180"/>
      <point x="521" y="182"/>
      <point x="549" y="184" type="curve"/>
    </contour>
    <contour>
      <point x="467" y="256" type="curve" smooth="yes"/>
      <point x="286" y="252"/>
      <point x="225" y="364"/>
      <point x="225" y="595" type="curve" smooth="yes"/>
      <point x="225" y="1079" type="line" smooth="yes"/>
      <point x="225" y="1313"/>
      <point x="288" y="1443"/>
      <point x="475" y="1440" type="curve" smooth="yes"/>
      <point x="489" y="1440"/>
      <point x="525" y="1439"/>
      <point x="549" y="1436" type="curve"/>
      <point x="549" y="260" type="line"/>
      <point x="522" y="257"/>
      <point x="483" y="256"/>
    </contour>
    <contour>
      <point x="748" y="256" type="curve" smooth="yes"/>
      <point x="732" y="256"/>
      <point x="688" y="257"/>
      <point x="661" y="260" type="curve"/>
      <point x="661" y="1436" type="line"/>
      <point x="686" y="1438"/>
      <point x="726" y="1440"/>
      <point x="740" y="1440" type="curve" smooth="yes"/>
      <point x="927" y="1443"/>
      <point x="991" y="1313"/>
      <point x="991" y="1079" type="curve" smooth="yes"/>
      <point x="991" y="595" type="line" smooth="yes"/>
      <point x="991" y="364"/>
      <point x="929" y="252"/>
    </contour>
  </outline>
</glyph>
<glyph name="afii10043" format="1">
  <advance width="1458"/>
  <unicode hex="0429"/>
  <outline>
    <contour>
      <point x="1312" y="-275" type="line"/>
      <point x="1402" y="-275" type="line"/>
      <point x="1402" y="85" type="line"/>
      <point x="1285" y="85" type="line"/>
      <point x="1285" y="1658" type="line"/>
      <point x="1173" y="1658" type="line"/>
      <point x="1173" y="85" type="line"/>
      <point x="781" y="85" type="line"/>
      <point x="781" y="1658" type="line"/>
      <point x="669" y="1658" type="line"/>
      <point x="669" y="85" type="line"/>
      <point x="264" y="85" type="line"/>
      <point x="264" y="1658" type="line"/>
      <point x="152" y="1658" type="line"/>
      <point x="152" y="0" type="line"/>
      <point x="1299" y="0" type="line"/>
    </contour>
  </outline>
</glyph>
<glyph name="afii10108" format="1">
  <advance width="832"/>
  <unicode hex="045B"/>
  <outline>
    <contour>
      <point x="137" y="0" type="line"/>
      <point x="246" y="0" type="line" smooth="yes"/>
      <point x="246" y="831" type="line"/>
      <point x="304" y="886"/>
      <point x="397" y="921"/>
      <point x="480" y="921" type="curve" smooth="yes"/>
      <point x="556" y="921"/>
      <point x="614" y="888"/>
      <point x="614" y="768" type="curve" smooth="yes"/>
      <point x="614" y="0" type="line"/>
      <point x="723" y="0" type="line"/>
      <point x="723" y="778" type="line" smooth="yes"/>
      <point x="723" y="935"/>
      <point x="620" y="993"/>
      <point x="507" y="993" type="curve" smooth="yes"/>
      <point x="389" y="993"/>
      <point x="297" y="946"/>
      <point x="246" y="903" type="curve"/>
      <point x="246" y="1658" type="line"/>
      <point x="137" y="1658" type="line"/>
    </contour>
    <contour>
      <point x="-8" y="1281" type="line"/>
      <point x="501" y="1281" type="line"/>
      <point x="501" y="1351" type="line"/>
      <point x="-8" y="1351" type="line"/>
    </contour>
  </outline>
</glyph>
<glyph name="endash" format="1">
  <advance width="935"/>
  <unicode hex="2013"/>
  <outline>
    <contour>
      <point x="122" y="438" type="line"/>
      <point x="830" y="438" type="line"/>
      <point x="830" y="535" type="line"/>
      <point x="122" y="535" type="line"/>
    </contour>
  </outline>
</glyph>
<glyph name="guilsinglright" format="1">
  <advance width="677"/>
  <unicode hex="203A"/>
  <outline>
    <contour>
      <point x="170" y="263" type="line"/>
      <point x="535" y="688" type="line"/>
      <point x="535" y="731" type="line"/>
      <point x="170" y="1157" type="line"/>
      <point x="170" y="1017" type="line"/>
      <point x="435" y="709" type="line"/>
      <point x="170" y="403" type="line"/>
    </contour>
  </outline>
</glyph>
<glyph name="afii61352" format="1">
  <advance width="1869"/>
  <unicode hex="2116"/>
  <outline>
    <contour>
      <point x="154" y="0" type="line"/>
      <point x="252" y="0" type="line"/>
      <point x="252" y="1415" type="line"/>
      <point x="810" y="0" type="line"/>
      <point x="902" y="0" type="line"/>
      <point x="902" y="1658" type="line"/>
      <point x="805" y="1658" type="line"/>
      <point x="805" y="244" type="line"/>
      <point x="246" y="1658" type="line"/>
      <point x="154" y="1658" type="line"/>
    </contour>
    <contour>
      <point x="1445" y="57" type="curve" smooth="yes"/>
      <point x="1273" y="57"/>
      <point x="1249" y="184"/>
      <point x="1249" y="425" type="curve" smooth="yes"/>
      <point x="1249" y="759" type="line" smooth="yes"/>
      <point x="1249" y="1000"/>
      <point x="1273" y="1127"/>
      <point x="1445" y="1127" type="curve" smooth="yes"/>
      <point x="1617" y="1127"/>
      <point x="1641" y="1001"/>
      <point x="1641" y="759" type="curve" smooth="yes"/>
      <point x="1641" y="425" type="line" smooth="yes"/>
      <point x="1641" y="183"/>
      <point x="1617" y="57"/>
    </contour>
    <contour>
      <point x="1445" y="-20" type="curve" smooth="yes"/>
      <point x="1673" y="-20"/>
      <point x="1745" y="124"/>
      <point x="1745" y="426" type="curve" smooth="yes"/>
      <point x="1745" y="758" type="line" smooth="yes"/>
      <point x="1745" y="1060"/>
      <point x="1673" y="1204"/>
      <point x="1445" y="1204" type="curve" smooth="yes"/>
      <point x="1217" y="1204"/>
      <point x="1146" y="1058"/>
      <point x="1146" y="758" type="curve" smooth="yes"/>
      <point x="1146" y="426" type="line" smooth="yes"/>
      <point x="1146" y="124"/>
      <point x="1217" y="-20"/>
    </contour>
  </outline>
</glyph>
<glyph name="minus" format="1">
  <advance width="706"/>
  <unicode hex="2212"/>
  <outline>
    <contour>
      <point x="69" y="739" type="line"/>
      <point x="637" y="739" type="line"/>
      <point x="637" y="815" type="line"/>
      <point x="69" y="815" type="line"/>
    </contour>
  </outline>
</glyph>
